<svg xmlns="http://www.w3.org/2000/svg" width="40" height="40" fill="none" viewBox="0 0 40 40"><path fill="#ebf212" d="m21.466 5.071.004 10.915c.001 1.725-1.834 2.83-3.358 2.024L7.17 12.223a15.1 15.1 0 0 1 3.1-3.64l8.582 7.932c.455.42 1.172-.036.985-.626L16.509 5.41a15 15 0 0 1 4.956-.338M18.496 34.925l-.005-10.86c0-1.724 1.834-2.83 3.359-2.023l10.946 5.79a15 15 0 0 1-3.116 3.626l-8.57-7.921c-.455-.42-1.172.035-.985.625l3.316 10.441a15 15 0 0 1-4.945.322M23.492 18.898 31.44 10.3a15 15 0 0 0-3.64-3.113l-5.804 10.972c-.806 1.524.3 3.359 2.024 3.358l10.905-.005a15.2 15.2 0 0 0-.324-4.958l-10.484 3.33c-.59.187-1.045-.53-.625-.985M5.07 18.54l10.872-.004c1.725 0 2.83 1.834 2.024 3.358L12.192 32.81a15 15 0 0 1-3.627-3.103l7.906-8.553c.42-.455-.036-1.172-.626-.985L5.408 23.484a15 15 0 0 1-.337-4.943"/></svg>